G04 MADE WITH FRITZING*
G04 WWW.FRITZING.ORG*
G04 DOUBLE SIDED*
G04 HOLES PLATED*
G04 CONTOUR ON CENTER OF CONTOUR VECTOR*
%ASAXBY*%
%FSLAX23Y23*%
%MOIN*%
%OFA0B0*%
%SFA1.0B1.0*%
%ADD10C,0.078000*%
%ADD11C,0.039370*%
%ADD12C,0.075000*%
%ADD13R,0.075000X0.075000*%
%ADD14C,0.024000*%
%LNCOPPER0*%
G90*
G70*
G54D10*
X129Y1312D03*
X129Y1212D03*
X129Y1112D03*
G54D11*
X1137Y1001D03*
X50Y350D03*
G54D12*
X238Y197D03*
X238Y497D03*
X338Y197D03*
X338Y497D03*
X438Y197D03*
X438Y497D03*
X538Y197D03*
X538Y497D03*
X638Y197D03*
X638Y497D03*
X738Y197D03*
X738Y497D03*
X838Y197D03*
X838Y497D03*
X938Y197D03*
X938Y497D03*
X1038Y197D03*
X1038Y497D03*
X1138Y197D03*
X1138Y497D03*
X1238Y197D03*
X1238Y497D03*
X1338Y197D03*
X1338Y497D03*
X1438Y197D03*
X1438Y497D03*
X1538Y197D03*
X1538Y497D03*
G54D10*
X235Y622D03*
X335Y622D03*
X435Y622D03*
X535Y622D03*
X635Y622D03*
X735Y622D03*
X835Y622D03*
X935Y622D03*
X1035Y622D03*
X1135Y622D03*
X1235Y622D03*
X1335Y622D03*
X1435Y622D03*
X1535Y622D03*
X235Y72D03*
X335Y72D03*
X435Y72D03*
X535Y72D03*
X635Y72D03*
X735Y72D03*
X835Y72D03*
X935Y72D03*
X1035Y72D03*
X1135Y72D03*
X1235Y72D03*
X1335Y72D03*
X1435Y72D03*
X1535Y72D03*
G54D13*
X238Y197D03*
G54D14*
X1137Y982D02*
X1135Y652D01*
D02*
X69Y350D02*
X838Y347D01*
D02*
X1438Y168D02*
X1436Y102D01*
D02*
X1236Y592D02*
X1238Y526D01*
D02*
X736Y592D02*
X738Y526D01*
D02*
X236Y592D02*
X238Y526D01*
D02*
X636Y592D02*
X638Y526D01*
D02*
X536Y592D02*
X538Y526D01*
D02*
X1138Y526D02*
X1136Y592D01*
D02*
X1338Y526D02*
X1336Y592D01*
D02*
X1238Y168D02*
X1236Y102D01*
D02*
X1438Y526D02*
X1436Y592D01*
D02*
X1338Y168D02*
X1336Y102D01*
D02*
X736Y102D02*
X738Y168D01*
D02*
X1536Y102D02*
X1538Y168D01*
D02*
X636Y102D02*
X638Y168D01*
D02*
X436Y102D02*
X438Y168D01*
D02*
X1038Y168D02*
X1036Y102D01*
D02*
X236Y102D02*
X238Y168D01*
D02*
X838Y347D02*
X938Y347D01*
D02*
X938Y347D02*
X938Y468D01*
D02*
X838Y226D02*
X838Y347D01*
D02*
X836Y102D02*
X838Y168D01*
D02*
X836Y592D02*
X838Y526D01*
G04 End of Copper0*
M02*