G04 MADE WITH FRITZING*
G04 WWW.FRITZING.ORG*
G04 DOUBLE SIDED*
G04 HOLES PLATED*
G04 CONTOUR ON CENTER OF CONTOUR VECTOR*
%ASAXBY*%
%FSLAX23Y23*%
%MOIN*%
%OFA0B0*%
%SFA1.0B1.0*%
%ADD10C,0.096614*%
%ADD11C,0.088000*%
%ADD12C,0.049370*%
%ADD13C,0.085000*%
%ADD14R,0.085000X0.085000*%
%LNMASK0*%
G90*
G70*
G54D10*
X76Y97D03*
X1501Y1297D03*
G54D11*
X129Y1312D03*
X129Y1212D03*
X129Y1112D03*
G54D12*
X1137Y1001D03*
X50Y350D03*
G54D13*
X238Y197D03*
X238Y497D03*
X338Y197D03*
X338Y497D03*
X438Y197D03*
X438Y497D03*
X538Y197D03*
X538Y497D03*
X638Y197D03*
X638Y497D03*
X738Y197D03*
X738Y497D03*
X838Y197D03*
X838Y497D03*
X938Y197D03*
X938Y497D03*
X1038Y197D03*
X1038Y497D03*
X1138Y197D03*
X1138Y497D03*
X1238Y197D03*
X1238Y497D03*
X1338Y197D03*
X1338Y497D03*
X1438Y197D03*
X1438Y497D03*
X1538Y197D03*
X1538Y497D03*
G54D11*
X235Y622D03*
X335Y622D03*
X435Y622D03*
X535Y622D03*
X635Y622D03*
X735Y622D03*
X835Y622D03*
X935Y622D03*
X1035Y622D03*
X1135Y622D03*
X1235Y622D03*
X1335Y622D03*
X1435Y622D03*
X1535Y622D03*
X235Y72D03*
X335Y72D03*
X435Y72D03*
X535Y72D03*
X635Y72D03*
X735Y72D03*
X835Y72D03*
X935Y72D03*
X1035Y72D03*
X1135Y72D03*
X1235Y72D03*
X1335Y72D03*
X1435Y72D03*
X1535Y72D03*
G54D14*
X238Y197D03*
G04 End of Mask0*
M02*