; NON-PLATED HOLES START AT T1
; THROUGH (PLATED) HOLES START AT T100
M48
INCH
T1C0.086614
T100C0.038000
T101C0.015748
T102C0.035000
%
T1
X000756Y000970
X015006Y012970
T100
X002353Y000720
X005353Y006220
X004353Y006220
X002353Y006220
X001289Y013121
X013353Y000720
X009353Y000720
X007353Y000720
X010353Y000720
X006353Y000720
X013353Y006220
X009353Y006220
X007353Y006220
X003353Y000720
X010353Y006220
X006353Y006220
X001289Y012121
X003353Y006220
X015353Y000720
X014353Y000720
X012353Y000720
X008353Y000720
X015353Y006220
X011353Y000720
X014353Y006220
X005353Y000720
X012353Y006220
X008353Y006220
X001289Y011121
X004353Y000720
X011353Y006220
T101
X000503Y003496
X011371Y010010
T102
X011382Y004970
X007382Y004970
X010382Y004970
X008382Y001970
X011382Y001970
X007382Y001970
X010382Y001970
X004382Y004970
X004382Y001970
X015382Y004970
X015382Y001970
X013382Y004970
X009382Y004970
X012382Y004970
X013382Y001970
X009382Y001970
X012382Y001970
X006382Y004970
X005382Y004970
X006382Y001970
X005382Y001970
X003382Y004970
X002382Y004970
X003382Y001970
X002382Y001970
X014382Y004970
X014382Y001970
X008382Y004970
T00
M30
